<?xml version="1.0" encoding="iso-8859-1"?>
<!-- Uploaded to: SVG Repo, www.svgrepo.com, Generator: SVG Repo Mixer Tools -->
<svg height="800px" width="800px" version="1.1" id="Layer_1" xmlns="http://www.w3.org/2000/svg" xmlns:xlink="http://www.w3.org/1999/xlink" 
	 viewBox="0 0 512 512" xml:space="preserve">
<g>
	<polygon style="fill:#1ACFF9;" points="105.931,476.69 406.069,476.69 406.069,0 105.931,0 	"/>
	<polygon style="fill:#BDC3C7;" points="0,512 512,512 512,476.69 0,476.69 	"/>
	<polygon style="fill:#556080;" points="105.931,476.69 406.069,476.69 406.069,317.793 105.931,317.793 	"/>
	<path style="fill:#E4C05C;" d="M350.196,432.552h-188.39c-6.479,0-11.741-5.252-11.741-11.732v-47.157
		c0-6.479,5.261-11.732,11.741-11.732h188.39c6.479,0,11.732,5.252,11.732,11.732v47.157
		C361.927,427.299,356.675,432.552,350.196,432.552"/>
	<path style="fill:#FFFFFF;" d="M300.138,406.069h-88.276c-4.873,0-8.828-3.955-8.828-8.828c0-4.873,3.955-8.828,8.828-8.828h88.276
		c4.873,0,8.828,3.955,8.828,8.828C308.966,402.114,305.011,406.069,300.138,406.069"/>
	<polygon style="fill:#D75A4A;" points="344.276,105.931 167.724,105.931 203.034,52.966 308.966,52.966 	"/>
	<polygon style="fill:#B74239;" points="256,220.69 167.724,105.931 344.276,105.931 	"/>
	<path style="fill:#FFFFFF;" d="M300.138,211.862c-4.873,0-8.828,3.955-8.828,8.828c0,19.474-15.837,35.31-35.31,35.31
		s-35.31-15.837-35.31-35.31c0-4.873-3.955-8.828-8.828-8.828c-4.873,0-8.828,3.955-8.828,8.828
		c0,29.21,23.755,52.966,52.966,52.966s52.966-23.755,52.966-52.966C308.966,215.817,305.011,211.862,300.138,211.862"/>
	<path style="fill:#3B4763;" d="M344.276,317.793H167.724v-41.234c0-6.479,5.252-11.732,11.732-11.732h153.088
		c6.479,0,11.732,5.252,11.732,11.732V317.793z"/>
	<path style="fill:#B74239;" d="M237.186,97.103l18.812-28.222l18.82,28.222H237.186z M298.652,101.032l-32.044-48.066h-21.213
		l-32.053,48.066c-0.98,1.483-1.43,3.187-1.43,4.899h88.179C300.091,104.218,299.641,102.515,298.652,101.032L298.652,101.032z"/>
	<path style="fill:#992F29;" d="M282.077,105.931L256,190.676l-26.077-84.745h-17.929c0,0.865-0.009,1.73,0.256,2.595l28.363,92.16
		L256,220.69l15.386-20.003l28.363-92.16c0.265-0.865,0.256-1.73,0.256-2.595H282.077z"/>
</g>
</svg>