<?xml version="1.0" encoding="iso-8859-1"?>
<!-- Uploaded to: SVG Repo, www.svgrepo.com, Generator: SVG Repo Mixer Tools -->
<svg height="800px" width="800px" version="1.1" id="Layer_1" xmlns="http://www.w3.org/2000/svg" xmlns:xlink="http://www.w3.org/1999/xlink" 
	 viewBox="0 0 512.427 512.427" xml:space="preserve">
<g transform="translate(1)">
	<polygon style="fill:#FFE100;" points="383.427,461.12 434.627,461.12 434.627,341.653 383.427,341.653 	"/>
	<g>
		<polygon style="fill:#00DA6C;" points="502.893,341.653 315.16,341.653 349.293,273.387 468.76,273.387 		"/>
		<polygon style="fill:#00DA6C;" points="485.827,273.387 332.227,273.387 366.36,205.12 451.693,205.12 		"/>
		<polygon style="fill:#00DA6C;" points="468.76,205.12 349.293,205.12 383.427,136.853 434.627,136.853 		"/>
	</g>
	<g>
		<polygon style="fill:#00AD55;" points="434.627,136.853 409.027,136.853 443.16,205.12 468.76,205.12 		"/>
		<polygon style="fill:#00AD55;" points="451.693,205.12 426.093,205.12 460.227,273.387 485.827,273.387 		"/>
		<polygon style="fill:#00AD55;" points="468.76,273.387 443.16,273.387 477.293,341.653 502.893,341.653 		"/>
	</g>
	<polygon style="fill:#00DA6C;" points="451.693,136.853 366.36,136.853 409.027,51.52 	"/>
	<polygon style="fill:#00AD55;" points="409.027,51.52 400.493,68.587 434.627,136.853 451.693,136.853 	"/>
	<polygon style="fill:#FFE100;" points="76.227,461.12 127.427,461.12 127.427,341.653 76.227,341.653 	"/>
	<polygon style="fill:#FFFFFF;" points="76.227,461.12 93.293,461.12 93.293,341.653 76.227,341.653 	"/>
	<polygon style="fill:#FFA800;" points="417.56,461.12 434.627,461.12 434.627,341.653 417.56,341.653 	"/>
	<g>
		<polygon style="fill:#00DA6C;" points="195.693,341.653 7.96,341.653 42.093,273.387 161.56,273.387 		"/>
		<polygon style="fill:#00DA6C;" points="178.627,273.387 25.027,273.387 59.16,205.12 144.493,205.12 		"/>
	</g>
	<g>
		<polygon style="fill:#FFFFFF;" points="59.16,205.12 25.027,273.387 50.627,273.387 84.76,205.12 		"/>
		<polygon style="fill:#FFFFFF;" points="42.093,273.387 7.96,341.653 33.56,341.653 67.693,273.387 		"/>
	</g>
	<polygon style="fill:#00DA6C;" points="161.56,205.12 42.093,205.12 101.827,102.72 	"/>
	<polygon style="fill:#FFFFFF;" points="101.827,102.72 42.093,205.12 67.693,205.12 114.627,124.907 	"/>
	<path d="M502.893,469.653H7.96c-5.12,0-8.533-3.413-8.533-8.533c0-5.12,3.413-8.533,8.533-8.533h494.933
		c5.12,0,8.533,3.413,8.533,8.533C511.427,466.24,508.013,469.653,502.893,469.653z"/>
	<path d="M195.693,350.187L195.693,350.187H7.96c-2.56,0-5.973-1.707-7.68-4.267s-1.707-5.973,0-8.533l34.133-68.267
		c1.707-2.56,4.267-4.267,7.68-4.267H161.56c3.413,0,5.973,1.707,7.68,5.12l33.28,66.56c0.853,1.707,1.707,3.413,1.707,5.12
		C204.227,346.773,200.813,350.187,195.693,350.187z M21.613,333.12H182.04l-25.6-51.2H47.213L21.613,333.12z"/>
	<path d="M178.627,281.92L178.627,281.92h-153.6c-2.56,0-5.973-1.707-7.68-4.267c-1.707-2.56-1.707-5.973,0-8.533l34.133-68.267
		c1.707-2.56,4.267-4.267,7.68-4.267h85.333c3.413,0,5.973,1.707,7.68,5.12l33.28,66.56c0.853,1.707,1.707,3.413,1.707,5.12
		C187.16,278.507,183.747,281.92,178.627,281.92z M38.68,264.853h126.293l-25.6-51.2H64.28L38.68,264.853z"/>
	<path d="M161.56,213.653L161.56,213.653H42.093c-3.413,0-5.973-1.707-7.68-4.267c-1.707-2.56-1.707-5.973,0-8.533l59.733-102.4
		c3.413-5.12,11.947-5.12,14.507,0l58.88,100.693c1.707,1.707,1.707,3.413,1.707,5.973
		C170.093,210.24,166.68,213.653,161.56,213.653z M56.6,196.587h89.6l-44.373-76.8L56.6,196.587z"/>
	<path d="M502.893,350.187L502.893,350.187H315.16c-2.56,0-5.973-1.707-7.68-4.267c-1.707-2.56-1.707-5.973,0-8.533l34.133-68.267
		c1.707-2.56,4.267-5.12,7.68-5.12H468.76c3.413,0,5.973,1.707,7.68,5.12l33.28,66.56c0.853,1.707,1.707,3.413,1.707,5.12
		C511.427,346.773,508.013,350.187,502.893,350.187z M328.813,333.12H489.24l-25.6-51.2H354.413L328.813,333.12z"/>
	<path d="M485.827,281.92L485.827,281.92h-153.6c-2.56,0-5.973-1.707-7.68-4.267c-1.707-2.56-1.707-5.973,0-8.533l34.133-68.267
		c1.707-2.56,4.267-5.12,7.68-5.12h85.333c3.413,0,5.973,1.707,7.68,5.12l33.28,66.56c0.853,1.707,1.707,3.413,1.707,5.12
		C494.36,278.507,490.947,281.92,485.827,281.92z M345.88,264.853h126.293l-25.6-51.2H371.48L345.88,264.853z"/>
	<path d="M468.76,213.653L468.76,213.653H349.293c-2.56,0-5.973-1.707-7.68-4.267c-1.707-2.56-1.707-5.973,0-8.533l34.133-68.267
		c1.707-2.56,4.267-5.12,7.68-5.12h51.2c3.413,0,5.973,1.707,7.68,5.12l33.28,66.56c0.853,1.707,1.707,3.413,1.707,5.12
		C477.293,210.24,473.88,213.653,468.76,213.653z M362.947,196.587h92.16l-25.6-51.2h-40.96L362.947,196.587z"/>
	<path d="M451.693,145.387L451.693,145.387H366.36c-2.56,0-5.973-1.707-7.68-4.267c-1.707-2.56-1.707-5.973,0-8.533l42.667-85.333
		c2.56-5.973,11.947-5.973,15.36,0l41.813,83.627c0.853,1.707,1.707,3.413,1.707,5.12
		C460.227,141.973,456.813,145.387,451.693,145.387z M380.013,128.32h58.027l-29.013-58.027L380.013,128.32z"/>
	<path d="M127.427,469.653h-51.2c-5.12,0-8.533-3.413-8.533-8.533V341.653c0-5.12,3.413-8.533,8.533-8.533h51.2
		c5.12,0,8.533,3.413,8.533,8.533V461.12C135.96,466.24,132.547,469.653,127.427,469.653z M84.76,452.587h34.133v-102.4H84.76
		V452.587z"/>
	<path d="M434.627,469.653h-51.2c-5.12,0-8.533-3.413-8.533-8.533V341.653c0-5.12,3.413-8.533,8.533-8.533h51.2
		c5.12,0,8.533,3.413,8.533,8.533V461.12C443.16,466.24,439.747,469.653,434.627,469.653z M391.96,452.587h34.133v-102.4H391.96
		V452.587z"/>
	<g>
		<path style="fill:#FFE100;" d="M238.36,384.32c-5.12,0-8.533-3.413-8.533-8.533v-25.6c0-5.12,3.413-8.533,8.533-8.533
			c5.12,0,8.533,3.413,8.533,8.533v25.6C246.893,380.907,243.48,384.32,238.36,384.32z"/>
		<path style="fill:#FFE100;" d="M289.56,384.32c-5.12,0-8.533-3.413-8.533-8.533v-25.6c0-5.12,3.413-8.533,8.533-8.533
			c5.12,0,8.533,3.413,8.533,8.533v25.6C298.093,380.907,294.68,384.32,289.56,384.32z"/>
		<polygon style="fill:#FFE100;" points="229.827,461.12 281.027,461.12 281.027,418.453 229.827,418.453 		"/>
		<path style="fill:#FFE100;" d="M306.627,418.453h-102.4V397.12c0-11.947,9.387-21.333,21.333-21.333h58.88
			c11.947,0,21.333,9.387,21.333,21.333v21.333H306.627z"/>
	</g>
	<path d="M306.627,426.987h-102.4c-5.12,0-8.533-3.413-8.533-8.533V397.12c0-17.067,13.653-29.867,29.867-29.867h58.88
		c17.067,0,29.867,13.653,29.867,29.867v21.333C315.16,423.573,311.747,426.987,306.627,426.987z M212.76,409.92h85.333v-12.8
		c0-6.827-5.973-12.8-12.8-12.8h-58.88c-6.827,0-12.8,5.973-12.8,12.8v12.8H212.76z"/>
	<path d="M229.827,384.32c-5.12,0-8.533-3.413-8.533-8.533v-25.6c0-5.12,3.413-8.533,8.533-8.533c5.12,0,8.533,3.413,8.533,8.533
		v25.6C238.36,380.907,234.947,384.32,229.827,384.32z"/>
	<path d="M281.027,384.32c-5.12,0-8.533-3.413-8.533-8.533v-25.6c0-5.12,3.413-8.533,8.533-8.533s8.533,3.413,8.533,8.533v25.6
		C289.56,380.907,286.147,384.32,281.027,384.32z"/>
	<path d="M281.027,469.653h-51.2c-5.12,0-8.533-3.413-8.533-8.533v-42.667c0-5.12,3.413-8.533,8.533-8.533h51.2
		c5.12,0,8.533,3.413,8.533,8.533v42.667C289.56,466.24,286.147,469.653,281.027,469.653z M238.36,452.587h34.133v-25.6H238.36
		V452.587z"/>
</g>
</svg>